HIERARCHY
ROOT Hips
{
  OFFSET 5.84602e-005 68.8428 3.50346
  CHANNELS 6 Xposition Yposition Zposition Zrotation Xrotation Yrotation
  JOINT Spine
  {
    OFFSET 0 8.597 -4.6522
    CHANNELS 3 Zrotation Xrotation Yrotation
    JOINT Spine1
    {
      OFFSET 0 7.8454 0.4098
      CHANNELS 3 Zrotation Xrotation Yrotation
      JOINT Spine2
      {
        OFFSET 0 9.7078 -2.1609
        CHANNELS 3 Zrotation Xrotation Yrotation
        JOINT Neck
        {
          OFFSET 0 21.8761 -0.4549
          CHANNELS 3 Zrotation Xrotation Yrotation
          JOINT Head
          {
            OFFSET 0 12.3537 3.3602
            CHANNELS 3 Zrotation Xrotation Yrotation
            End Site
            {
              OFFSET 0.0001 18.9506 0.5657
            }
          }
        }
        JOINT LeftShoulder
        {
          OFFSET 2.2086 21.1115 7.2329
          CHANNELS 3 Zrotation Xrotation Yrotation
          JOINT LeftArm
          {
            OFFSET 13.1193 3.0282 -4.8998
            CHANNELS 3 Zrotation Xrotation Yrotation
            JOINT LeftForeArm
            {
              OFFSET 27.4081 -0.0973053 -0.2375
              CHANNELS 3 Zrotation Xrotation Yrotation
              JOINT LeftHand
              {
                OFFSET 22.8641 0.0662994 -0.1369
                CHANNELS 3 Zrotation Xrotation Yrotation
                JOINT LeftHandIndex1
                {
                  OFFSET 8.8614 0.775009 2.4612
                  CHANNELS 3 Zrotation Xrotation Yrotation
                  JOINT LeftHandIndex2
                  {
                    OFFSET 3.3146 -0.808304 0.5841
                    CHANNELS 3 Zrotation Xrotation Yrotation
                    JOINT LeftHandIndex3
                    {
                      OFFSET 2.2628 -0.552002 0.3989
                      CHANNELS 3 Zrotation Xrotation Yrotation
                      End Site
                      {
                        OFFSET 1.6102 -0.4807 0.2612
                      }
                    }
                  }
                }
                JOINT LeftHandMiddle1
                {
                  OFFSET 8.9937 0.895004 0.2143
                  CHANNELS 3 Zrotation Xrotation Yrotation
                  JOINT LeftHandMiddle2
                  {
                    OFFSET 4.0984 0.0113983 -0.0242
                    CHANNELS 3 Zrotation Xrotation Yrotation
                    JOINT LeftHandMiddle3
                    {
                      OFFSET 2.2716 0.00689697 -0.0138001
                      CHANNELS 3 Zrotation Xrotation Yrotation
                      End Site
                      {
                        OFFSET 2.0404 -0.1441 0.0027
                      }
                    }
                  }
                }
                JOINT LeftHandRing1
                {
                  OFFSET 8.5234 0.597198 -2.0164
                  CHANNELS 3 Zrotation Xrotation Yrotation
                  JOINT LeftHandRing2
                  {
                    OFFSET 3.7188 -0.188293 -0.2328
                    CHANNELS 3 Zrotation Xrotation Yrotation
                    JOINT LeftHandRing3
                    {
                      OFFSET 2.1191 -0.106598 -0.1332
                      CHANNELS 3 Zrotation Xrotation Yrotation
                      End Site
                      {
                        OFFSET 1.8737 -0.2304 -0.0886
                      }
                    }
                  }
                }
                JOINT LeftHandPinky1
                {
                  OFFSET 7.9094 -0.601089 -3.4825
                  CHANNELS 3 Zrotation Xrotation Yrotation
                  JOINT LeftHandPinky2
                  {
                    OFFSET 2.2874 -0.477005 -0.6314
                    CHANNELS 3 Zrotation Xrotation Yrotation
                    JOINT LeftHandPinky3
                    {
                      OFFSET 1.6774 -0.349396 -0.4633
                      CHANNELS 3 Zrotation Xrotation Yrotation
                      End Site
                      {
                        OFFSET 1.4888 -0.4091 -0.3416
                      }
                    }
                  }
                }
                JOINT LeftHandThumb1
                {
                  OFFSET 1.833 -1.3875 1.3896
                  CHANNELS 3 Zrotation Xrotation Yrotation
                  JOINT LeftHandThumb2
                  {
                    OFFSET 3.4129 -1.121 2.5732
                    CHANNELS 3 Zrotation Xrotation Yrotation
                    JOINT LeftHandThumb3
                    {
                      OFFSET 2.2474 -0.804199 1.6192
                      CHANNELS 3 Zrotation Xrotation Yrotation
                      End Site
                      {
                        OFFSET 1.6527 -0.5689 1.1317
                      }
                    }
                  }
                }
              }
            }
          }
        }
        JOINT RightShoulder
        {
          OFFSET -2.2086 21.1115 7.2329
          CHANNELS 3 Zrotation Xrotation Yrotation
          JOINT RightArm
          {
            OFFSET -13.1216 3.0287 -4.9007
            CHANNELS 3 Zrotation Xrotation Yrotation
            JOINT RightForeArm
            {
              OFFSET -27.4081 -0.0973053 -0.2375
              CHANNELS 3 Zrotation Xrotation Yrotation
              JOINT RightHand
              {
                OFFSET -22.8641 0.0664063 -0.1369
                CHANNELS 3 Zrotation Xrotation Yrotation
                JOINT RightHandIndex1
                {
                  OFFSET -8.8614 0.774994 2.4612
                  CHANNELS 3 Zrotation Xrotation Yrotation
                  JOINT RightHandIndex2
                  {
                    OFFSET -3.3146 -0.808304 0.5841
                    CHANNELS 3 Zrotation Xrotation Yrotation
                    JOINT RightHandIndex3
                    {
                      OFFSET -2.2628 -0.552002 0.3989
                      CHANNELS 3 Zrotation Xrotation Yrotation
                      End Site
                      {
                        OFFSET -1.6102 -0.4807 0.2612
                      }
                    }
                  }
                }
                JOINT RightHandMiddle1
                {
                  OFFSET -8.9937 0.894989 0.2143
                  CHANNELS 3 Zrotation Xrotation Yrotation
                  JOINT RightHandMiddle2
                  {
                    OFFSET -4.0984 0.0113983 -0.0242
                    CHANNELS 3 Zrotation Xrotation Yrotation
                    JOINT RightHandMiddle3
                    {
                      OFFSET -2.2716 0.00691223 -0.0138001
                      CHANNELS 3 Zrotation Xrotation Yrotation
                      End Site
                      {
                        OFFSET -2.0404 -0.1441 0.0027
                      }
                    }
                  }
                }
                JOINT RightHandRing1
                {
                  OFFSET -8.5234 0.597198 -2.0164
                  CHANNELS 3 Zrotation Xrotation Yrotation
                  JOINT RightHandRing2
                  {
                    OFFSET -3.7188 -0.188309 -0.2328
                    CHANNELS 3 Zrotation Xrotation Yrotation
                    JOINT RightHandRing3
                    {
                      OFFSET -2.1191 -0.106598 -0.1332
                      CHANNELS 3 Zrotation Xrotation Yrotation
                      End Site
                      {
                        OFFSET -1.8737 -0.2304 -0.0886
                      }
                    }
                  }
                }
                JOINT RightHandPinky1
                {
                  OFFSET -7.9094 -0.601105 -3.4825
                  CHANNELS 3 Zrotation Xrotation Yrotation
                  JOINT RightHandPinky2
                  {
                    OFFSET -2.2874 -0.477005 -0.6314
                    CHANNELS 3 Zrotation Xrotation Yrotation
                    JOINT RightHandPinky3
                    {
                      OFFSET -1.6774 -0.349396 -0.4633
                      CHANNELS 3 Zrotation Xrotation Yrotation
                      End Site
                      {
                        OFFSET -1.4888 -0.4091 -0.3416
                      }
                    }
                  }
                }
                JOINT RightHandThumb1
                {
                  OFFSET -1.833 -1.38751 1.3896
                  CHANNELS 3 Zrotation Xrotation Yrotation
                  JOINT RightHandThumb2
                  {
                    OFFSET -3.41299 -1.12099 2.5732
                    CHANNELS 3 Zrotation Xrotation Yrotation
                    JOINT RightHandThumb3
                    {
                      OFFSET -2.24741 -0.804108 1.6192
                      CHANNELS 3 Zrotation Xrotation Yrotation
                      End Site
                      {
                        OFFSET -1.6527 -0.5689 1.1317
                      }
                    }
                  }
                }
              }
            }
          }
        }
      }
    }
  }
  JOINT RightUpLeg
  {
    OFFSET -9.1966 3.8861 -0.7581
    CHANNELS 3 Zrotation Xrotation Yrotation
    JOINT RightLeg
    {
      OFFSET -0.7359 -41.0265 0
      CHANNELS 3 Zrotation Xrotation Yrotation
      JOINT RightFoot
      {
        OFFSET 0 -40.2855 0
        CHANNELS 3 Zrotation Xrotation Yrotation
        JOINT RightToeBase
        {
          OFFSET 0 -5.6122 11.7359
          CHANNELS 3 Zrotation Xrotation Yrotation
          End Site
          {
            OFFSET 0 0 7.8731
          }
        }
      }
    }
  }
  JOINT LeftUpLeg
  {
    OFFSET 9.1965 3.8864 -0.7581
    CHANNELS 3 Zrotation Xrotation Yrotation
    JOINT LeftLeg
    {
      OFFSET 0.7359 -41.0268 0
      CHANNELS 3 Zrotation Xrotation Yrotation
      JOINT LeftFoot
      {
        OFFSET 0 -40.2855 0
        CHANNELS 3 Zrotation Xrotation Yrotation
        JOINT LeftToeBase
        {
          OFFSET 0 -5.6122 11.7359
          CHANNELS 3 Zrotation Xrotation Yrotation
          End Site
          {
            OFFSET 0 0 7.8731
          }
        }
      }
    }
  }
}
MOTION
Frames:	4
Frame Time:	0.0333333
5.84602e-005 68.8428 3.50346 0 0 -0 0 0 -0 0 0 -0 0 0 -0 0 0 -0 0 0 -0 0 0 -0 0 0 -0 0 0 -0 0 0 -0 0 0 -0 0 0 -0 0 0 -0 0 0 -0 -0.0146107 -8.87603e-005 -2.63497e-007 2.99804e-018 -2.42657e-020 -1.42182e-022 0 0 -0 -0.0187562 -0.001176 5.858e-005 5.06224e-018 3.88251e-019 1.21329e-020 0 0 -0 -0.012269 -0.00324817 0.000675346 -1.74678e-018 3.88251e-019 -0 0 0 -0 0 0 -0 0 0 -0 0 0 -0 0 0 -0 0 0 -0 0 0 -0 0 0 -0 0 0 -0 0 0 -0 0 0 -0 0.0149955 -9.10982e-005 2.64101e-007 -9.69331e-018 1.21329e-020 -4.7394e-023 0 0 -0 0.0189956 -0.00119102 -5.96516e-005 -5.41541e-019 0 2.42657e-020 0 0 -0 0.0122698 -0.00324857 -0.000673756 -2.00796e-019 0 -1.94126e-019 0 0 -0 0 0 -0 0 0 -0 3.39842 1.33031 -0.0637918 -5.65207e-008 0.834868 -0.000436188 -3.39935 -2.16518 -0.0642563 -8.89002e-024 -1.18485e-023 -1.48106e-024 -3.39844 1.35642 0.0640283 -3.18788e-007 0.782166 -0.000588827 3.39931 -2.13858 0.0634662 1.1399e-023 0 -0 
9.19788 -2.45689 27.5022 49.0036 0.652155 89.2426 -0.457461 7.17042 -0.232745 -0.895786 14.3424 -0.412012 -0.895783 14.3424 -0.412014 4.96105e-006 3.06652e-005 -1.00124e-005 0.120164 0.274734 0.200776 -4.54555 -0.0679744 0.258037 1.36597 -0.00560541 2.02337 16.7065 -2.90664 -8.71026 -90.2525 -36.5952 -34.4445 -2.61249e-007 1.67622e-007 2.92658e-007 1.30625e-006 -8.38108e-007 -1.46329e-006 1.045e-006 -6.70486e-007 -1.17063e-006 -2.61249e-007 1.67622e-007 2.92658e-007 -0.0145989 -9.97678e-005 -7.3766e-007 1.04499e-006 -6.70337e-007 -1.17072e-006 -2.61249e-007 1.67622e-007 2.92658e-007 -0.0187999 -0.00117643 5.29388e-005 1.04497e-006 -6.70295e-007 -1.17075e-006 -2.61249e-007 1.67622e-007 2.92658e-007 -0.0122652 -0.00325809 0.000676444 1.04495e-006 -6.70369e-007 -1.17073e-006 -2.61249e-007 1.67622e-007 2.92658e-007 1.30625e-006 -8.38108e-007 -1.46329e-006 1.045e-006 -6.70486e-007 -1.17063e-006 30.7622 -4.5591 0.697608 18.3257 -1.47244 -3.84265 16.4963 1.90846 36.7836 9.7249 18.64 14.1565 8.93202e-007 3.19256e-006 -1.3872e-006 -2.54484e-008 -2.40217e-006 1.78204e-006 -1.03088e-006 5.88843e-006 3.04764e-006 8.93202e-007 3.19256e-006 -1.3872e-006 0.0149751 -9.88847e-005 9.8141e-007 -1.02931e-006 5.88882e-006 3.04687e-006 8.93202e-007 3.19256e-006 -1.3872e-006 0.0190466 -0.00120266 -5.97668e-005 -1.02885e-006 5.88881e-006 3.04666e-006 8.93202e-007 3.19256e-006 -1.3872e-006 0.0121698 -0.00322361 -0.000666256 2.31176e-007 3.20825e-006 8.61539e-007 8.93202e-007 3.19256e-006 -1.3872e-006 -2.54484e-008 -2.40217e-006 1.78204e-006 -1.03088e-006 5.88843e-006 3.04764e-006 -87.0065 -48.1685 -93.5951 159.479 56.411 -166.648 -0.362386 7.66836 5.69262 -2.61676e-006 1.72446e-006 -6.64591e-007 176.897 -73.6126 -173.378 -177.546 39.8532 -175.262 3.75297 34.5815 3.04474 2.39054e-006 2.36485e-006 4.75477e-007 
9.19788 -2.45689 27.5022 49.0036 0.652152 89.2426 -0.45738 7.1704 -0.232677 -0.895788 14.3424 -0.412001 -0.895776 14.3424 -0.412024 1.37283e-006 0.000116304 3.67383e-007 0.27661 0.529125 0.375104 -4.54555 -0.0679703 0.258033 1.36597 -0.00560432 2.02336 16.7065 -2.90664 -8.71024 -90.2525 -36.5952 -34.4445 -9.54166e-015 -6.36111e-015 1.59028e-015 5.22498e-007 -3.35244e-007 -5.85316e-007 -3.18055e-015 -3.18055e-015 3.18055e-015 -9.54166e-015 -6.36111e-015 1.59028e-015 -0.0145924 -9.04832e-005 2.18788e-006 -1.10348e-031 1.59028e-015 3.97569e-015 -9.54166e-015 -6.36111e-015 1.59028e-015 -0.0187971 -0.00117689 5.44576e-005 -1.98675e-006 -4.24523e-007 -1.54523e-006 -9.54166e-015 -6.36111e-015 1.59028e-015 -0.012297 -0.00325805 0.000678309 -6.36111e-015 4.77083e-015 7.95139e-016 -9.54166e-015 -6.36111e-015 1.59028e-015 5.22498e-007 -3.35244e-007 -5.85316e-007 -3.18055e-015 -3.18055e-015 3.18055e-015 30.7622 -4.5591 0.697611 18.3257 -1.47245 -3.84265 16.448 1.83091 36.5789 9.57139 18.6388 14.1549 3.18055e-015 0 -2.38542e-015 1.59028e-015 0 -1.59028e-015 1.59028e-015 -3.18055e-015 7.95139e-016 3.18055e-015 0 -2.38542e-015 0.014971 -8.95495e-005 3.17735e-006 7.95139e-016 -6.36111e-015 -1.59028e-015 3.18055e-015 0 -2.38542e-015 0.0190249 -0.00119164 -5.96156e-005 2.38542e-015 3.18055e-015 4.77083e-015 3.18055e-015 0 -2.38542e-015 0.0121626 -0.00321914 -0.000669155 2.38542e-015 0 -3.18055e-015 3.18055e-015 0 -2.38542e-015 1.59028e-015 0 -1.59028e-015 1.59028e-015 -3.18055e-015 7.95139e-016 -87.0064 -48.1686 -93.595 159.479 56.411 -166.648 -0.362367 7.66831 5.69264 -7.85027e-006 5.1734e-006 -1.99377e-006 176.896 -73.6273 -173.379 -177.548 39.8678 -175.263 3.75298 34.5815 3.04473 1.19527e-006 1.18242e-006 2.37738e-007 
9.19788 -2.45689 27.5022 49.0036 0.652155 89.2426 -0.457461 7.17042 -0.232745 -0.895786 14.3424 -0.412012 -0.895783 14.3424 -0.412014 4.96105e-006 3.06652e-005 -1.00124e-005 0.4324 0.784186 0.548875 -4.54555 -0.0679744 0.258037 1.36597 -0.00560541 2.02337 16.7065 -2.90665 -8.71027 -90.2526 -36.5952 -34.4445 -1.045e-006 6.70486e-007 1.17063e-006 -7.83748e-007 5.02865e-007 8.77974e-007 6.36111e-015 -9.54166e-015 -1.59028e-014 -1.045e-006 6.70486e-007 1.17063e-006 -0.014603 -9.74674e-005 4.78244e-006 1.98632e-006 4.24462e-007 1.54524e-006 -1.045e-006 6.70486e-007 1.17063e-006 -0.018808 -0.00117262 5.72875e-005 3.97252e-031 -3.18055e-015 7.15625e-015 -1.045e-006 6.70486e-007 1.17063e-006 -0.0122672 -0.00325089 0.000681957 -2.64834e-031 -6.36111e-015 -2.38542e-015 -1.045e-006 6.70486e-007 1.17063e-006 -7.83748e-007 5.02865e-007 8.77974e-007 6.36111e-015 -9.54166e-015 -1.59028e-014 30.7622 -4.5591 0.697608 18.3257 -1.47244 -3.84265 16.3994 1.75347 36.374 9.41783 18.6377 14.1534 -1.59028e-015 -9.54166e-015 1.59028e-015 -4.77083e-015 0 7.95139e-016 -1.59028e-015 -3.18055e-015 4.77083e-015 -1.59028e-015 -9.54166e-015 1.59028e-015 0.0149825 -8.59982e-005 1.50151e-006 -2.38542e-015 1.27222e-014 -3.97569e-015 -1.59028e-015 -9.54166e-015 1.59028e-015 0.0189378 -0.00118928 -5.91223e-005 8.82781e-031 6.36111e-015 -7.95139e-015 -1.59028e-015 -9.54166e-015 1.59028e-015 0.012298 -0.00325413 -0.000676036 7.95139e-016 -3.18055e-015 -2.38542e-015 -1.59028e-015 -9.54166e-015 1.59028e-015 -4.77083e-015 0 7.95139e-016 -1.59028e-015 -3.18055e-015 4.77083e-015 -87.0065 -48.1685 -93.5951 159.479 56.411 -166.648 -0.362382 7.66835 5.69263 8.62233e-007 1.30838e-006 -5.91606e-007 176.897 -73.6126 -173.378 -177.546 39.8532 -175.262 3.75297 34.5815 3.04474 2.39054e-006 2.36485e-006 4.75477e-007 
